<?xml version="1.0"?>
<svg width="200" height="200" xmlns="http://www.w3.org/2000/svg" preserveAspectRatio="xMidYMid meet">
 <metadata>Created by potrace 1.12, written by Peter Selinger 2001-2015</metadata>

 <title>background</title>
 <title>Layer 1</title>
 <g>
  <title>background</title>
  <rect fill="none" id="canvas_background" height="402" width="582" y="-1" x="-1"/>
 </g>
 <g>
  <title>Layer 1</title>
  <rect id="svg_1" x="-1" y="-1" width="202" height="202" fill="none"/>
  <g id="svg_2" stroke="null">
   <path id="svg_3" d="m132.369995,76.900002c-7.800003,1.220001 -13.609993,6.860001 -15.669998,15.189995c-0.579994,2.350006 -0.809998,4.410004 -0.809998,7.220001c0,5.060005 0.900002,9.420006 2.739998,13.25c2.760002,5.760002 7.300003,9.360001 12.949989,10.300003c2.070007,0.360001 4.880005,0.229996 6.940002,-0.309998c5.880005,-1.520004 10.340012,-6 12.540009,-12.560005c0.969986,-2.909996 1.37999,-5.489998 1.48999,-9.279999c0.119995,-4.349998 -0.25,-7.229996 -1.360001,-10.580002c-1.160004,-3.5 -2.580002,-5.879997 -4.919998,-8.219994c-2.669998,-2.690002 -5.73999,-4.310005 -9.289993,-4.920006c-1.060013,-0.189995 -3.75,-0.239998 -4.600006,-0.110001l-0.009995,0.020004zm3.230011,3.669998c1.479996,0.68 2.75,2.5 3.419998,4.910004c0.360001,1.299995 0.729996,3.959999 0.959991,6.689995c0.240005,2.900002 0.240005,15.5 0,18.150002c-0.429993,4.800003 -1.089996,6.949997 -2.569992,8.389999c-0.76001,0.730003 -1.580002,1.050003 -2.779999,1.050003c-2.730011,0 -4.480011,-2.020004 -5.320007,-6.099998c-0.779999,-3.870003 -1.130005,-9.700005 -1.020004,-17.350006c0.12001,-8.769997 0.580002,-11.959999 2.070007,-14.279999c0.919998,-1.409996 1.860001,-1.909996 3.470001,-1.849998c0.729996,0.040001 1.209991,0.129997 1.770004,0.400002l0,-0.010002z" fill="#2e2925"/>
   <path id="svg_4" d="m11.53,79.260002l0,1.659996l0.77,0.209999c1.12,0.32 1.75,0.810005 2.22,1.730003l0.4,0.779999l0.04,15.940002c0.03,14.049995 0.01,16.040001 -0.17,16.75c-0.35,1.360001 -1.04,2.029999 -2.49,2.449997l-0.77,0.209999l0,1.650002l0,1.650002l11.740001,-0.050003c12.989998,-0.040001 12.360001,0 14.869999,-0.939995c1.580002,-0.600006 2.5,-1.170006 3.75,-2.340004c2.330002,-2.190002 3.549999,-5.080002 3.560001,-8.370003c0.029999,-5.199997 -3.510002,-9.369995 -9.459999,-11.169998c-0.77,-0.239998 -1.5,-0.470001 -1.650002,-0.519997c-0.170002,-0.07 0.119999,-0.209999 1.060001,-0.520004c4.769997,-1.57 7.869999,-4.25 8.769997,-7.599998c0.350002,-1.279999 0.320004,-3.360001 -0.07,-4.720001c-0.489998,-1.739998 -1.099998,-2.759995 -2.539997,-4.189995c-1.710003,-1.700005 -3.300003,-2.590004 -6.050003,-3.389999c-2.709999,-0.780006 -2.709999,-0.780006 -13.779999,-0.82l-10.209999,-0.050003l0,1.659996l0.009999,-0.009995zm16.510001,1.869995c2.669998,0.560005 4.469997,2.330002 5.239998,5.18c0.330002,1.240005 0.41,4.670006 0.120003,6.060005c-0.66,3.279999 -2.530001,4.809998 -6.070002,5l-1.440001,0.079994l0,-8.269997l0,-8.260002l0.640001,0c0.349998,0 1.019999,0.090004 1.519999,0.200005l-0.009998,0.009995zm1.369999,19.770004c1.360001,0.279999 2.689999,1.209999 3.34,2.309998c0.939999,1.610001 1.290001,3.510002 1.290001,7.099998c0.009998,2.260002 -0.040001,2.940002 -0.27,4c-0.369999,1.709999 -0.93,2.870003 -1.77,3.620003c-0.799999,0.720001 -1.620001,1.019997 -2.75,1.019997c-1.48,0 -2.459999,-0.649994 -3,-1.979996c-0.290001,-0.739998 -0.290001,-0.809998 -0.33,-8.480003c-0.040001,-7.339996 -0.030001,-7.739998 0.200001,-7.799995c0.33,-0.090004 2.5,0.040001 3.299999,0.209999l-0.01,0z" fill="#2e2925"/>
   <path id="svg_5" d="m43.57,79.269997c0,1.290001 0.040001,1.660004 0.170002,1.660004c0.57,0 1.639999,0.470001 2.149998,0.940002c0.970001,0.889999 0.93,0.809998 7.760002,18.479996l1.889999,4.870003l-0.040001,5.5c-0.040001,5.419998 -0.040001,5.519997 -0.349998,6.169998c-0.550003,1.169998 -1.220001,1.669998 -2.730003,1.970001l-0.82,0.169998l-0.039997,1.620003l-0.040001,1.619995l9.380001,0l9.369995,0l0,-1.639999l0,-1.639999l-0.809998,-0.159996c-1.019997,-0.190002 -1.889999,-0.690002 -2.339996,-1.370003c-0.639999,-0.959999 -0.700005,-1.620003 -0.700005,-7.099998l0,-5.059998l2.990005,-8.230003c4.089996,-11.220001 4.769997,-12.800003 6.049995,-14.199997c2.379997,-2.590004 6.139999,-2.57 7.360001,0.040001c0.279999,0.599998 0.279999,0.609993 0.279999,16.82c0,18.25 0.07,17.089996 -0.979996,18.149994c-0.639999,0.639999 -1.220001,0.880005 -2.410004,1.020004l-0.659996,0.080002l0,1.639999l0,1.649994l9.5,0l9.5,0l0,-1.649994l0,-1.639999l-0.740005,-0.080002c-1.019997,-0.110001 -2.110001,-0.660004 -2.529999,-1.290001c-0.699997,-1.059998 -0.720001,-1.220001 -0.720001,-8.669998l0,-6.889999l1.32,0l1.300003,0l0.610001,1.360001c0.330002,0.759995 2.019997,4.589996 3.739998,8.519997c3.419998,7.779999 3.720001,8.43 4.489998,9.559998l0.520004,0.770004l5.839996,0l5.850006,0l0,-1.650002l0,-1.650002l-0.390007,-0.129997c-0.209999,-0.080002 -0.719994,-0.349998 -1.119995,-0.599998c-1.330002,-0.850006 -2.309998,-2.530006 -4.950005,-8.470001c-1.809998,-4.040001 -3.299995,-7.130005 -4.199997,-8.639999c-0.309998,-0.520004 -0.529999,-0.959999 -0.510002,-0.980003c0.029999,-0.029999 0.510002,-0.25 1.060005,-0.519997c1.479996,-0.68 2.57,-1.450005 3.839996,-2.740005c1.730003,-1.75 2.629997,-3.519997 3.029999,-5.919998c0.170006,-1.099998 0.190002,-1.529999 0.050003,-2.690002c-0.639999,-5.689995 -4.590004,-9.029999 -12.260002,-10.379997c-1.129997,-0.199997 -3.119995,-0.229996 -18.449997,-0.269997l-17.190002,-0.050003l0.040001,1.620003l0.040001,1.619995l0.400002,0.120003c1.059998,0.309998 1.369995,0.43 1.779999,0.739998c0.650002,0.480003 0.939995,1.220001 0.939995,2.419998c0,1.610001 -0.169998,2.18 -3.789993,12.760002c-0.639999,1.860001 -1.210007,3.43 -1.25,3.5c-0.080002,0.080002 -4.190002,-10.709999 -5.720001,-14.989998c-0.960003,-2.730003 -0.490002,-4.150002 1.489998,-4.400002l0.619999,-0.089996l0,-1.639999l0,-1.650002l-8.84,0l-8.84,0l0,1.659996l0.060001,0.029999zm54.769997,1.990005c2.310005,0.699997 3.700005,2.169998 4.310005,4.549995c0.519997,1.970001 0.510002,5.840004 0,7.790001c-0.849998,3.279999 -3,4.800003 -7.260002,5.090004l-1.300003,0.089996l0,-8.949997l0,-8.950005l1.770004,0.080002c1.050003,0.040001 2.050003,0.160004 2.489998,0.290001l-0.010002,0.010002z" fill="#2e2925"/>
   <path id="svg_6" d="m151.639999,79.230003l0,1.639999l0.860001,0.449997c1.089996,0.559998 1.869995,1.440002 2.660004,2.959999l0.599991,1.139999l0,12.020004c0,12 -0.080002,14.769997 -0.479996,16.699997c-0.429993,2.110001 -1.459991,3.550003 -3.179993,4.410004l-0.860001,0.439995l0,1.639999l0,1.650002l6.509995,0l6.509995,0l0,-1.650002l0,-1.649994l-0.519989,-0.090004c-0.720001,-0.120003 -1.970001,-0.739998 -2.62001,-1.300003c-0.289993,-0.269997 -0.729996,-0.839996 -0.970001,-1.289993c-0.919998,-1.700005 -0.860001,-0.920006 -0.899994,-14.490005l-0.039993,-12.299995l1.889999,2.900002c1.049988,1.579994 2.759995,4.209999 3.829987,5.849998c1.050003,1.619995 2.580002,3.959999 3.390015,5.209999c0.809998,1.239998 3.949997,6.07 6.979996,10.729996l5.5,8.480003l1.830002,0l1.830002,0l0,-18.580002c0,-20.089996 -0.01001,-19.57 0.719986,-21c0.440002,-0.860001 1.400009,-1.699997 2.25,-1.949997c0.37001,-0.110001 0.76001,-0.200005 0.850006,-0.200005c0.130005,0 0.169998,-0.369995 0.169998,-1.659996l0,-1.660004l-5.979996,0l-5.979996,0l0,1.639999l0,1.650002l0.720001,0.160004c0.939987,0.209999 2.029999,0.879997 2.569992,1.580002c1.100006,1.449997 1.259995,3.339996 1.210007,14.119995l-0.040009,7.779999l-1.539993,-2.329994c-0.850006,-1.280006 -3.5,-5.290001 -5.889999,-8.910004c-2.389999,-3.620003 -5.720001,-8.629997 -7.360001,-11.129997l-3.020004,-4.560005l-5.740005,0l-5.759995,0l0,1.620003l0,-0.019997z" fill="#2e2925"/>
  </g>
 </g>
</svg>